<svg width="413" height="104" viewBox="0 0 413 104" fill="none" xmlns="http://www.w3.org/2000/svg">
<g clip-path="url(#clip0_9835_116692)">
<path fill-rule="evenodd" clip-rule="evenodd" d="M101.136 52.3949C101.169 70.1039 102.812 73.2344 92.8866 78.9471C77.5095 87.7973 76.6881 88.532 58.3443 98.8825C45.638 106.052 45.3277 100.753 45.3132 92.9896C45.3043 88.1716 45.2979 84.7226 45.2979 84.7226C45.2979 84.7226 45.3117 79.1024 45.3132 78.9471C45.4117 69.5339 46.4393 69.3419 58.3443 62.1507C58.3443 62.1507 62.7446 59.3765 66.621 57.2364C76.0141 52.0511 90.526 43.5441 92.8866 42.2918C100.25 38.3851 101.12 44.0674 101.136 52.3949Z" stroke="#100F0F" stroke-width="3" stroke-miterlimit="1.5" stroke-linecap="round" stroke-linejoin="round"/>
<path fill-rule="evenodd" clip-rule="evenodd" d="M30.7777 81.9854C30.8015 80.8949 30.5997 66.4218 30.7777 62.6165C31.0523 56.7356 33.4006 54.8631 39.2711 51.3757C54.4667 42.3488 58.2693 40.3222 76.5957 29.9411C85.7511 24.7551 86.5386 30.8018 86.693 36.1615C86.7799 39.1754 86.693 45.7407 86.693 45.7407C86.693 45.7407 57.5861 62.5338 57.4545 62.6165C44.5707 70.7316 45.4452 68.4331 45.1181 84.7433C45.1181 84.7433 42.4558 86.2867 38.6616 87.9646C31.5523 91.1084 30.6867 86.1504 30.7777 81.9854Z" stroke="#100F0F" stroke-width="3" stroke-miterlimit="1.5" stroke-linecap="round" stroke-linejoin="round"/>
<path fill-rule="evenodd" clip-rule="evenodd" d="M16.1499 68.7518C16.1738 67.6612 15.9721 53.1883 16.1499 49.3829C16.4247 43.502 18.773 41.6295 24.6435 38.1421C39.8391 29.1153 43.6417 27.0886 61.9681 16.7075C71.1235 11.5214 71.911 17.5681 72.0654 22.9279C72.1523 25.9418 72.0654 32.5071 72.0654 32.5071C72.0654 32.5071 42.9584 49.3001 42.8269 49.3829C29.9431 57.4982 30.8176 55.1995 30.4905 71.5097C30.4905 71.5097 27.8282 73.0531 24.034 74.731C16.9247 77.8747 16.059 72.9168 16.1499 68.7518Z" stroke="#100F0F" stroke-width="3" stroke-miterlimit="1.5" stroke-linecap="round" stroke-linejoin="round"/>
<path fill-rule="evenodd" clip-rule="evenodd" d="M1.58277 55.3814C1.60655 54.2909 1.405 39.8178 1.58277 36.0125C1.85742 30.1316 4.20568 28.2591 10.0762 24.7717C25.2718 15.7448 29.0744 13.7182 47.4008 3.33713C56.5562 -1.84894 57.3437 4.19778 57.4983 9.5575C57.585 12.5714 57.4983 19.1367 57.4983 19.1367C57.4983 19.1367 28.3912 35.9298 28.2596 36.0125C15.3758 44.1276 16.2503 41.8291 15.9232 58.1393C15.9232 58.1393 13.2611 59.6827 9.46669 61.3606C2.3574 64.5044 1.49194 59.5464 1.58277 55.3814Z" stroke="#100F0F" stroke-width="3" stroke-miterlimit="1.5" stroke-linecap="round" stroke-linejoin="round"/>
<path fill-rule="evenodd" clip-rule="evenodd" d="M57.8355 18.8892C57.8355 18.8892 57.9156 24.0636 57.6436 28.3217C57.4026 32.097 55.6778 35.2702 52.135 37.3525C39.7813 44.614 16.1652 58.1124 16.1652 58.1124L16.0928 54.8926C16.0928 54.8926 16.1012 51.3027 16.1024 51.1762C16.1815 43.5052 17.3261 42.6607 26.9131 36.8006C26.9131 36.8006 30.4567 34.5399 33.5783 32.7962C41.1426 28.5707 49.2903 23.9263 51.1564 22.8436C58.0166 18.8632 57.8355 18.8892 57.8355 18.8892Z" fill="#100F0F"/>
<path fill-rule="evenodd" clip-rule="evenodd" d="M72.4627 32.7852C72.4627 32.7852 72.5428 37.9596 72.2708 42.2177C72.0298 45.993 70.305 49.1662 66.7622 51.2485C54.4085 58.51 30.7924 72.0084 30.7924 72.0084L30.72 68.7886C30.72 68.7886 30.7284 65.1987 30.7296 65.0722C30.8087 57.4012 31.9533 56.5567 41.5403 50.6966C41.5403 50.6966 45.0838 48.4359 48.2055 46.6921C55.7698 42.4667 63.9175 37.8223 65.7836 36.7396C72.6438 32.7591 72.4627 32.7852 72.4627 32.7852Z" fill="#100F0F"/>
<path fill-rule="evenodd" clip-rule="evenodd" d="M87.0133 46.0703C87.0133 46.0703 87.0933 51.2447 86.8213 55.5029C86.5804 59.2781 84.8555 62.4514 81.3128 64.5337C68.9591 71.7951 45.3429 85.2935 45.3429 85.2935L45.2705 82.0737C45.2705 82.0737 45.2789 78.4839 45.2801 78.3573C45.3592 70.6864 46.5038 69.8419 56.0909 63.9818C56.0909 63.9818 59.6344 61.7211 62.756 59.9773C70.3203 55.7518 78.468 51.1074 80.3342 50.0247C87.1944 46.0443 87.0133 46.0703 87.0133 46.0703Z" fill="#100F0F"/>
<path fill-rule="evenodd" clip-rule="evenodd" d="M72.0045 32.7171L72.0107 35.8303C72.0107 35.8303 72.1244 39.6046 72.0045 41.8489C71.8035 45.609 70.0517 48.7653 66.5324 50.838C54.2609 58.0658 30.73 71.5431 30.73 71.5431V68.2968C30.73 68.2968 30.7384 64.7235 30.7397 64.5976C30.8183 56.9621 31.9553 56.1214 41.4785 50.2886C41.4785 50.2886 44.9985 48.0384 48.0993 46.3027C55.6131 42.0968 63.7067 37.4739 65.5603 36.3962C72.3748 32.4342 72.0045 32.7171 72.0045 32.7171Z" stroke="#100F0F" stroke-width="3" stroke-miterlimit="1.5" stroke-linecap="round" stroke-linejoin="round"/>
<path fill-rule="evenodd" clip-rule="evenodd" d="M57.5799 19.0896L57.5862 22.2028C57.5862 22.2028 57.6998 25.9771 57.5799 28.2215C57.379 31.9816 55.6272 35.1378 52.1078 37.2105C39.8363 44.4383 16.3054 57.9157 16.3054 57.9157V54.6693C16.3054 54.6693 16.3138 51.0961 16.3152 50.9701C16.3937 43.3347 17.5307 42.4939 27.0539 36.6611C27.0539 36.6611 30.5739 34.4109 33.6748 32.6752C41.1885 28.4693 49.2822 23.8464 51.1357 22.7687C57.9503 18.8068 57.5799 19.0896 57.5799 19.0896Z" stroke="#100F0F" stroke-width="3" stroke-miterlimit="1.5" stroke-linecap="round" stroke-linejoin="round"/>
<path fill-rule="evenodd" clip-rule="evenodd" d="M86.6415 46.0064L86.6479 49.1196C86.6479 49.1196 86.7614 52.8939 86.6415 55.1381C86.4407 58.8984 84.6888 62.0544 81.1696 64.1272C68.8979 71.355 45.3672 84.8324 45.3672 84.8324V81.5861C45.3672 81.5861 45.3754 78.0128 45.3767 77.8869C45.4553 70.2515 46.5923 69.4107 56.1155 63.5779C56.1155 63.5779 59.6355 61.3277 62.7363 59.592C70.2503 55.3861 78.3438 50.7632 80.1975 49.6855C87.0121 45.7235 86.6415 46.0064 86.6415 46.0064Z" stroke="#100F0F" stroke-width="3" stroke-miterlimit="1.5" stroke-linecap="round" stroke-linejoin="round"/>
</g>
<g clip-path="url(#clip1_9835_116692)">
<path d="M193.712 74.7399L170.132 9.61401H161.047L138.283 74.2295L131.138 76.373V79.0272H151.043V76.373L143.081 74.4333L149.308 56.57H177.992L184.627 74.9437L177.481 76.373V79.0272H200.142V76.373L193.712 74.7399ZM151.247 51.0577L163.496 16.3513L175.95 51.0577H151.247Z" fill="#100F0F"/>
<path d="M276.803 74.6375V45.5453C276.803 37.175 272.006 31.2546 263.431 31.2546C256.285 31.2546 250.671 35.0316 246.69 38.7061C244.852 34.8273 240.769 31.2546 234.236 31.2546C226.989 31.2546 221.477 35.0316 217.598 38.808V32.2754H203.307V35.1335L210.248 39.1146V74.6375L202.898 76.3729V79.0271H225.151V76.3729L217.802 74.6375V41.258C219.946 39.4207 224.029 37.4811 228.928 37.4811C235.563 37.4811 239.749 40.6458 239.749 47.5869V74.6375L232.399 76.3729V79.0271H254.652V76.3729L247.303 74.6375V40.9519C249.65 39.2165 253.529 37.4811 258.225 37.4811C264.962 37.4811 269.249 40.7477 269.249 48.0972V74.6375L261.9 76.3729V79.0271H284.153V76.3729L276.803 74.6375Z" fill="#100F0F"/>
<path d="M303.241 10.5325H294.462V19.3109H303.241V10.5325ZM287.726 79.0268H309.979V76.3726L302.629 74.6372V32.2751H288.134V35.1331L295.075 39.1143V74.6372L287.726 76.3726V79.0268Z" fill="#100F0F"/>
<path d="M363.161 36.7662V29.2124H360.915C355.914 29.2124 352.341 32.1728 349.789 35.6436C346.624 32.9893 342.133 31.4582 336.723 31.4582C325.597 31.4582 317.838 38.2974 317.838 47.7908C317.838 53.5073 320.492 58.2027 324.984 60.9588C320.288 63.2046 317.226 67.0834 317.226 71.7792C317.226 76.9849 321.003 81.2722 328.455 81.2722H346.42C353.158 81.2722 355.914 84.0283 355.914 88.3156C355.914 94.3383 350.095 98.7279 337.744 98.7279C325.494 98.7279 320.696 94.5426 320.696 88.2137C320.696 86.6826 321.003 85.3557 321.411 84.2326H314.776C314.266 85.6618 313.755 87.7033 313.755 89.8468C313.755 97.2987 319.471 103.525 334.273 103.525C353.668 103.525 361.528 93.9303 361.528 85.1514C361.528 77.6995 356.424 73.9226 348.462 73.9226H330.802C326.005 73.9226 322.942 71.8811 322.942 68.1042C322.942 65.5523 324.78 63.6131 327.331 62.2857C329.884 63.4088 332.946 64.0211 336.314 64.0211C347.747 64.0211 355.301 57.1819 355.301 47.4847C355.301 43.4016 353.872 39.8285 351.422 37.1747C352.341 36.8686 353.361 36.7662 354.689 36.7662H363.161ZM336.519 60.3465C329.68 60.3465 325.392 55.6508 325.392 47.4847C325.392 39.4205 329.884 35.1332 336.519 35.1332C343.256 35.1332 347.951 39.7266 347.951 47.7908C347.951 55.9569 343.256 60.3465 336.519 60.3465Z" fill="#100F0F"/>
<path d="M389.497 80.0479C403.073 80.0479 412.158 69.9422 412.158 55.651C412.158 41.3604 403.073 31.2546 389.497 31.2546C375.921 31.2546 366.836 41.3604 366.836 55.651C366.836 69.9422 375.921 80.0479 389.497 80.0479ZM389.497 76.1686C380.208 76.1686 375.512 69.3294 375.512 55.651C375.512 41.9726 380.208 35.1335 389.497 35.1335C398.786 35.1335 403.482 41.9726 403.482 55.651C403.482 69.3294 398.786 76.1686 389.497 76.1686Z" fill="#100F0F"/>
</g>
<defs>
<clipPath id="clip0_9835_116692">
<rect width="103" height="104" fill="white"/>
</clipPath>
<clipPath id="clip1_9835_116692">
<rect width="281.205" height="103.435" fill="white" transform="translate(131 0.282227)"/>
</clipPath>
</defs>
</svg>
